<svg width="60" height="60" viewBox="0 0 60 60" fill="none" xmlns="http://www.w3.org/2000/svg">
<g clip-path="url(#clip0_0_297)">
<path d="M59.8826 47.2847C59.6741 46.6478 59.1247 46.1843 58.4621 46.0882L53.2091 45.3415L50.9107 40.6879C50.3202 39.4862 48.3497 39.4862 47.759 40.6879L45.4606 45.3415L40.3248 46.0882C40.0774 46.1241 39.8714 46.2552 39.6674 46.3835C39.4633 46.2552 39.2573 46.1241 39.0099 46.0882L33.8741 45.3415L31.5757 40.6879C30.9852 39.4862 29.0147 39.4862 28.424 40.6879L26.1256 45.3415L20.9897 46.0882C20.7423 46.1241 20.5363 46.2552 20.3322 46.3835C20.1282 46.2552 19.9222 46.1241 19.6748 46.0882L14.539 45.3415L12.2406 40.6879C11.6501 39.4862 9.67954 39.4862 9.08892 40.6879L6.79052 45.3415L1.53736 46.0882C0.874779 46.1843 0.325404 46.6478 0.117748 47.2847C-0.088268 47.9198 0.0834117 48.6185 0.562357 49.0853L4.28048 52.7089L3.40333 57.9431C3.29001 58.6023 3.5613 59.2684 4.10201 59.6613C4.64623 60.0579 5.36376 60.1111 5.95415 59.7953L10.6649 57.3802L15.2584 59.7953C15.8494 60.1064 16.5658 60.0571 17.1105 59.6613C17.6512 59.2683 17.9225 58.6022 17.8092 57.9431L16.932 52.7089L20.3326 49.3948L23.7331 52.7089L22.856 57.9431C22.7427 58.6023 23.014 59.2684 23.5547 59.6613C24.0989 60.0579 24.8164 60.1111 25.4068 59.7953L30 57.3803L34.5935 59.7954C35.1845 60.1065 35.901 60.0572 36.4456 59.6614C36.9863 59.2684 37.2576 58.6023 37.1443 57.9432L36.2672 52.7091L39.6677 49.3949L43.0683 52.7091L42.1911 57.9432C42.0778 58.6024 42.3491 59.2685 42.8898 59.6614C43.434 60.058 44.1515 60.1112 44.7419 59.7954L49.3355 57.3803L54.0462 59.7954C54.6371 60.1065 55.3536 60.0572 55.8983 59.6614C56.439 59.2684 56.7103 58.6023 56.597 57.9432L55.7198 52.7091L59.438 49.0854C59.9169 48.6185 60.0886 47.9198 59.8826 47.2847Z" fill="#1F50FE"/>
<path fill-rule="evenodd" clip-rule="evenodd" d="M30 37.5C40.3553 37.5 48.75 29.1053 48.75 18.75C48.75 8.39466 40.3553 0 30 0C19.6447 0 11.25 8.39466 11.25 18.75C11.25 29.1053 19.6447 37.5 30 37.5ZM42.9099 18.7733C42.9099 24.1063 40.3922 27.4365 36.2379 27.4365C32.0837 27.4365 29.5546 24.1292 29.5546 18.7848C29.5546 13.4518 32.1066 10.1788 36.2379 10.1788C40.3693 10.1788 42.9099 13.4404 42.9099 18.7733ZM33.0679 18.7848C33.0679 22.5385 34.2696 24.6671 36.2379 24.6671C38.2063 24.6671 39.3965 22.5499 39.3965 18.7848C39.3965 15.054 38.1949 12.9483 36.2379 12.9483C34.2924 12.9483 33.0679 15.0655 33.0679 18.7848ZM26.0641 27.0703H22.6424V13.7265H22.5737L18.3623 16.6333V13.5205L22.6309 10.5565H26.0641V27.0703Z" fill="#1F50FE"/>
</g>
<defs>
<clipPath id="clip0_0_297">
<rect width="60" height="60" fill="white"/>
</clipPath>
</defs>
</svg>
