<svg width="60" height="60" viewBox="0 0 60 60" fill="none" xmlns="http://www.w3.org/2000/svg">
<g clip-path="url(#clip0_0_311)">
<path d="M57.5 54.5H2.5C1.12 54.5 0 55.6175 0 57C0 58.3825 1.12 59.5 2.5 59.5H57.5C58.88 59.5 60 58.3825 60 57C60 55.6175 58.88 54.5 57.5 54.5Z" fill="#1F50FE"/>
<path d="M10 24.5H17.55C17.5 24.875 17.5 25.225 17.5 25.6V29.5H10V54.5H5V29.5C5 26.75 7.25 24.5 10 24.5Z" fill="#1F50FE"/>
<path d="M55 29.5V54.5H50V29.5H42.5V25.6C42.5 25.225 42.5 24.875 42.45 24.5H50C52.75 24.5 55 26.75 55 29.5Z" fill="#1F50FE"/>
<path d="M39 26H21C20.448 26 20 25.5516 20 24.9991V22.655C20 21.3179 20.52 20.0607 21.464 19.1159L24 16.5777V10.8886C24 8.47249 24.81 6.08839 26.282 4.17469L29.208 0.369327C29.586 -0.123109 30.416 -0.123109 30.794 0.369327L33.72 4.17669C35.19 6.08839 36 8.47249 36 10.8886V16.5777L38.536 19.1159C39.48 20.0607 40 21.3179 40 22.655V24.9991C40 25.5536 39.552 26 39 26Z" fill="#1F50FE"/>
<path d="M35 30C33.894 30 33 29.104 33 28V25C33 23.896 33.894 23 35 23C36.106 23 37 23.896 37 25V28C37 29.106 36.106 30 35 30Z" fill="#1F50FE"/>
<path d="M25 30C23.894 30 23 29.104 23 28V25C23 23.896 23.894 23 25 23C26.106 23 27 23.896 27 25V28C27 29.106 26.106 30 25 30Z" fill="#1F50FE"/>
<path d="M18.6469 48.3529C21.4879 48.3529 23.4277 46.5677 23.4277 43.9412C23.4277 41.5294 21.7282 39.787 19.3593 39.787C18.0976 39.787 17.1105 40.3106 16.6041 41.1432H16.5526L16.8359 37.7528H22.6809V35.6929H14.8017L14.1923 42.8169H16.5097C16.9389 42.1045 17.7457 41.6753 18.6812 41.6753C20.0202 41.6753 20.9557 42.6366 20.9557 44.0099C20.9557 45.3574 20.0202 46.3016 18.6641 46.3016C17.4624 46.3016 16.5355 45.5806 16.3895 44.5335H13.9949C14.0721 46.7737 15.9861 48.3529 18.6469 48.3529Z" fill="#1F50FE"/>
<path d="M29.7191 48.3529C32.8347 48.3529 34.723 45.8553 34.723 41.8556C34.723 37.8558 32.8175 35.4097 29.7191 35.4097C26.6206 35.4097 24.7065 37.8644 24.7065 41.8641C24.7065 45.8724 26.6034 48.3529 29.7191 48.3529ZM29.7191 46.2758C28.2428 46.2758 27.3415 44.6794 27.3415 41.8641C27.3415 39.0746 28.2599 37.4868 29.7191 37.4868C31.1868 37.4868 32.088 39.0661 32.088 41.8641C32.088 44.688 31.1953 46.2758 29.7191 46.2758Z" fill="#1F50FE"/>
<path d="M41.1689 48.3529C44.2845 48.3529 46.1728 45.8553 46.1728 41.8556C46.1728 37.8558 44.2674 35.4097 41.1689 35.4097C38.0704 35.4097 36.1564 37.8644 36.1564 41.8641C36.1564 45.8724 38.0532 48.3529 41.1689 48.3529ZM41.1689 46.2758C39.6926 46.2758 38.7914 44.6794 38.7914 41.8641C38.7914 39.0746 39.7097 37.4868 41.1689 37.4868C42.6366 37.4868 43.5378 39.0661 43.5378 41.8641C43.5378 44.688 42.6452 46.2758 41.1689 46.2758Z" fill="#1F50FE"/>
</g>
<defs>
<clipPath id="clip0_0_311">
<rect width="60" height="60" fill="white"/>
</clipPath>
</defs>
</svg>
