<svg width="56" height="60" viewBox="0 0 56 60" fill="none" xmlns="http://www.w3.org/2000/svg">
<path d="M53.6771 55.9641H37.3991V53.5144C31.9133 48.3926 23.9462 39.6357 23.9462 32.1525C23.9462 23.8184 29.6731 16.7973 37.3991 14.8184V2.01794C37.3991 0.904036 36.4951 0 35.3812 0H2.01794C0.904036 0 0 0.904036 0 2.01794V60H53.6771C54.7916 60 55.6951 59.0965 55.6951 57.9821C55.6951 56.8676 54.7916 55.9641 53.6771 55.9641ZM23.5426 4.30493H26.7713C27.8852 4.30493 28.7892 5.20897 28.7892 6.32287C28.7892 7.43677 27.8852 8.34081 26.7713 8.34081H23.5426C22.4287 8.34081 21.5247 7.43677 21.5247 6.32287C21.5247 5.20897 22.4287 4.30493 23.5426 4.30493ZM13.8565 42.7803H10.6278C9.5139 42.7803 8.60987 41.8762 8.60987 40.7623C8.60987 39.6484 9.5139 38.7444 10.6278 38.7444H13.8565C14.9704 38.7444 15.8744 39.6484 15.8744 40.7623C15.8744 41.8762 14.9704 42.7803 13.8565 42.7803ZM13.8565 34.1704H10.6278C9.5139 34.1704 8.60987 33.2664 8.60987 32.1525C8.60987 31.0386 9.5139 30.1345 10.6278 30.1345H13.8565C14.9704 30.1345 15.8744 31.0386 15.8744 32.1525C15.8744 33.2664 14.9704 34.1704 13.8565 34.1704ZM13.8565 25.5605H10.6278C9.5139 25.5605 8.60987 24.6565 8.60987 23.5426C8.60987 22.4287 9.5139 21.5247 10.6278 21.5247H13.8565C14.9704 21.5247 15.8744 22.4287 15.8744 23.5426C15.8744 24.6565 14.9704 25.5605 13.8565 25.5605ZM13.8565 16.9507H10.6278C9.5139 16.9507 8.60987 16.0466 8.60987 14.9327C8.60987 13.8188 9.5139 12.9148 10.6278 12.9148H13.8565C14.9704 12.9148 15.8744 13.8188 15.8744 14.9327C15.8744 16.0466 14.9704 16.9507 13.8565 16.9507ZM13.8565 8.34081H10.6278C9.5139 8.34081 8.60987 7.43677 8.60987 6.32287C8.60987 5.20897 9.5139 4.30493 10.6278 4.30493H13.8565C14.9704 4.30493 15.8744 5.20897 15.8744 6.32287C15.8744 7.43677 14.9704 8.34081 13.8565 8.34081ZM21.5247 14.9327C21.5247 13.8188 22.4287 12.9148 23.5426 12.9148H26.7713C27.8852 12.9148 28.7892 13.8188 28.7892 14.9327C28.7892 16.0466 27.8852 16.9507 26.7713 16.9507H23.5426C22.4287 16.9507 21.5247 16.0466 21.5247 14.9327Z" fill="#1F50FE"/>
<path fill-rule="evenodd" clip-rule="evenodd" d="M27.9563 32.1817C27.9563 24.5418 34.1729 18.3252 41.8128 18.3252C49.4527 18.3252 55.6693 24.5418 55.6693 32.1817C55.6693 38.2651 47.4993 46.9853 43.1648 50.9001C42.394 51.5929 41.2303 51.5916 40.4608 50.9001C36.2245 47.0741 27.9563 38.3001 27.9563 32.1817ZM42.7018 42.2796C42.7018 42.4453 42.8361 42.5796 43.0018 42.5796H45.084C45.2497 42.5796 45.384 42.4453 45.384 42.2796V39.2429C45.384 39.0772 45.5183 38.9429 45.684 38.9429H47.2206C47.3863 38.9429 47.5207 38.8086 47.5207 38.6429V37.2087C47.5207 37.043 47.3863 36.9087 47.2206 36.9087H45.684C45.5183 36.9087 45.384 36.7743 45.384 36.6087V27.4692C45.384 27.3035 45.2497 27.1692 45.084 27.1692H42.958C42.8614 27.1692 42.7707 27.2157 42.7143 27.2942L36.0527 36.5688C36.016 36.6198 35.9963 36.6811 35.9963 36.7439V38.6429C35.9963 38.8086 36.1307 38.9429 36.2963 38.9429H42.4018C42.5675 38.9429 42.7018 39.0772 42.7018 39.2429V42.2796ZM39.3146 36.9087C39.0713 36.9087 38.9292 36.6343 39.0696 36.4356L42.1568 32.066C42.3257 31.827 42.7018 31.9464 42.7018 32.2391V36.6087C42.7018 36.7743 42.5675 36.9087 42.4018 36.9087H39.3146Z" fill="#1F50FE"/>
</svg>
