<svg width="60" height="60" viewBox="0 0 60 60" fill="none" xmlns="http://www.w3.org/2000/svg">
<g clip-path="url(#clip0_0_200)">
<path d="M35.625 30H24.375C21.9625 30 20 28.0375 20 25.625V4.375C20 1.9625 21.9625 0 24.375 0H35.625C38.0375 0 40 1.9625 40 4.375V25.625C40 28.0375 38.0375 30 35.625 30Z" fill="#1F50FE"/>
<path d="M13.7525 22.5C12.9925 22.5 12.24 22.155 11.75 21.5L8.00001 16.5C7.33251 15.6125 7.33251 14.3875 8.00001 13.5L11.75 8.49997C12.58 7.39747 14.145 7.16997 15.25 7.99997C16.355 8.82747 16.5775 10.395 15.75 11.5L13.125 15L15.75 18.5C16.58 19.605 16.355 21.1725 15.25 22C14.8 22.3375 14.2725 22.5 13.7525 22.5Z" fill="#1F50FE"/>
<path d="M46.2475 22.5C45.7275 22.5 45.2 22.3375 44.75 22C43.645 21.1725 43.4225 19.605 44.25 18.5L46.875 15L44.25 11.5C43.42 10.395 43.645 8.82747 44.75 7.99997C45.8575 7.16997 47.4225 7.39747 48.25 8.49997L52 13.5C52.6675 14.3875 52.6675 15.6125 52 16.5L48.25 21.5C47.76 22.155 47.0075 22.5 46.2475 22.5Z" fill="#1F50FE"/>
<path d="M55.625 10L56 10.5C58 13.15 58 16.85 56 19.5L55 20.825V45H5V20.825L4 19.5C2 16.85 2 13.15 4 10.5L4.375 10C1.975 10 0 11.975 0 14.375V45.625C0 48.025 1.975 50 4.375 50H25V55H20C18.62 55 17.5 56.12 17.5 57.5C17.5 58.88 18.62 60 20 60H40C41.3825 60 42.5 58.88 42.5 57.5C42.5 56.12 41.3825 55 40 55H35V50H55.625C58.025 50 60 48.025 60 45.625V14.375C60 11.975 58.025 10 55.625 10Z" fill="#1F50FE"/>
</g>
<defs>
<clipPath id="clip0_0_200">
<rect width="60" height="60" fill="white"/>
</clipPath>
</defs>
</svg>
