<svg width="60" height="60" viewBox="0 0 60 60" fill="none" xmlns="http://www.w3.org/2000/svg">
<g clip-path="url(#clip0_0_209)">
<path d="M58.125 2.5H41.875C40.84 2.5 40 3.34 40 4.375V19.375H1.875C0.84 19.375 0 20.215 0 21.25V55.625C0 56.66 0.84 57.5 1.875 57.5H48.125V23.75C48.125 22.715 48.965 21.875 50 21.875C51.035 21.875 51.875 22.715 51.875 23.75V57.5H58.125C59.16 57.5 60 56.66 60 55.625V4.375C60 3.34 59.16 2.5 58.125 2.5ZM12.5 45.625C12.5 46.66 11.66 47.5 10.625 47.5H9.375C8.34 47.5 7.5 46.66 7.5 45.625V44.375C7.5 43.34 8.34 42.5 9.375 42.5H10.625C11.66 42.5 12.5 43.34 12.5 44.375V45.625ZM12.5 33.125C12.5 34.16 11.66 35 10.625 35H9.375C8.34 35 7.5 34.16 7.5 33.125V31.875C7.5 30.84 8.34 30 9.375 30H10.625C11.66 30 12.5 30.84 12.5 31.875V33.125ZM22.5 45.625C22.5 46.66 21.66 47.5 20.625 47.5H19.375C18.34 47.5 17.5 46.66 17.5 45.625V44.375C17.5 43.34 18.34 42.5 19.375 42.5H20.625C21.66 42.5 22.5 43.34 22.5 44.375V45.625ZM22.5 33.125C22.5 34.16 21.66 35 20.625 35H19.375C18.34 35 17.5 34.16 17.5 33.125V31.875C17.5 30.84 18.34 30 19.375 30H20.625C21.66 30 22.5 30.84 22.5 31.875V33.125ZM32.5 45.625C32.5 46.66 31.66 47.5 30.625 47.5H29.375C28.34 47.5 27.5 46.66 27.5 45.625V44.375C27.5 43.34 28.34 42.5 29.375 42.5H30.625C31.66 42.5 32.5 43.34 32.5 44.375V45.625ZM32.5 33.125C32.5 34.16 31.66 35 30.625 35H29.375C28.34 35 27.5 34.16 27.5 33.125V31.875C27.5 30.84 28.34 30 29.375 30H30.625C31.66 30 32.5 30.84 32.5 31.875V33.125ZM42.5 45.625C42.5 46.66 41.66 47.5 40.625 47.5H39.375C38.34 47.5 37.5 46.66 37.5 45.625V44.375C37.5 43.34 38.34 42.5 39.375 42.5H40.625C41.66 42.5 42.5 43.34 42.5 44.375V45.625ZM42.5 33.125C42.5 34.16 41.66 35 40.625 35H39.375C38.34 35 37.5 34.16 37.5 33.125V31.875C37.5 30.84 38.34 30 39.375 30H40.625C41.66 30 42.5 30.84 42.5 31.875V33.125ZM53.125 15.625H46.875C45.84 15.625 45 14.785 45 13.75C45 12.715 45.84 11.875 46.875 11.875H53.125C54.16 11.875 55 12.715 55 13.75C55 14.785 54.16 15.625 53.125 15.625Z" fill="#1F50FE"/>
</g>
<defs>
<clipPath id="clip0_0_209">
<rect width="60" height="60" fill="white"/>
</clipPath>
</defs>
</svg>
