<svg width="60" height="57" viewBox="0 0 60 57" fill="none" xmlns="http://www.w3.org/2000/svg">
<path d="M30 23.3898C36.4589 23.3898 41.6949 18.1538 41.6949 11.6949C41.6949 5.23599 36.4589 0 30 0C23.5411 0 18.3051 5.23599 18.3051 11.6949C18.3051 18.1538 23.5411 23.3898 30 23.3898Z" fill="#1F50FE"/>
<path d="M9.66102 25.4237C13.8734 25.4237 17.2881 22.0089 17.2881 17.7965C17.2881 13.5842 13.8734 10.1694 9.66102 10.1694C5.44868 10.1694 2.03391 13.5842 2.03391 17.7965C2.03391 22.0089 5.44868 25.4237 9.66102 25.4237Z" fill="#1F50FE"/>
<path d="M50.339 25.4237C54.5513 25.4237 57.9661 22.0089 57.9661 17.7965C57.9661 13.5842 54.5513 10.1694 50.339 10.1694C46.1266 10.1694 42.7118 13.5842 42.7118 17.7965C42.7118 22.0089 46.1266 25.4237 50.339 25.4237Z" fill="#1F50FE"/>
<path d="M48.1017 38.217C46.4013 37.6808 44.6073 37.5074 42.8356 37.708C41.064 37.9087 39.3542 38.4789 37.8168 39.3818C36.2794 40.2847 34.9486 41.5002 33.9104 42.9497C32.8722 44.3992 32.1498 46.0504 31.7898 47.7966H15.0712C14.3946 47.7892 13.7279 47.6334 13.118 47.3403C12.5082 47.0473 11.97 46.624 11.5415 46.1004C11.1129 45.5769 10.8044 44.9657 10.6376 44.3099C10.4708 43.6542 10.4499 42.9698 10.5763 42.3051C11.4135 38.1883 13.5376 34.4442 16.6419 31.6136C19.7461 28.7829 23.6697 27.0122 27.846 26.5572C32.0224 26.1023 36.2352 26.9865 39.8762 29.0824C43.5171 31.1782 46.3976 34.3771 48.1017 38.217Z" fill="#1F50FE"/>
<path d="M14.2983 29.6543C11.3946 32.393 9.25629 35.8423 8.09491 39.6611H1.52542C1.12176 39.6582 0.735462 39.4965 0.450022 39.2111C0.164582 38.9256 0.0029281 38.5393 0 38.1357C0.00150663 36.4591 0.438917 34.8117 1.2693 33.3551C2.09969 31.8986 3.29452 30.683 4.73652 29.8277C6.17852 28.9723 7.81815 28.5066 9.49448 28.4762C11.1708 28.4458 12.8262 28.8518 14.2983 29.6543Z" fill="#1F50FE"/>
<path d="M60 38.1357C59.997 38.5393 59.8354 38.9256 59.55 39.2111C59.2645 39.4965 58.8782 39.6582 58.4746 39.6611H52.0881L50.8881 36.9764C49.6636 34.215 47.9003 31.7257 45.7017 29.6543C47.1737 28.8518 48.8292 28.4458 50.5055 28.4762C52.1818 28.5066 53.8214 28.9723 55.2634 29.8277C56.7055 30.683 57.9003 31.8986 58.7307 33.3551C59.5611 34.8117 59.9985 36.4591 60 38.1357Z" fill="#1F50FE"/>
<path d="M41.7392 40.3416C41.9786 39.6046 43.0214 39.6046 43.2608 40.3416L44.4533 44.0116C44.5604 44.3412 44.8675 44.5643 45.2141 44.5643H49.0729C49.8479 44.5643 50.1701 45.556 49.5431 46.0116L46.4213 48.2797C46.1409 48.4834 46.0236 48.8445 46.1307 49.1741L47.3231 52.844C47.5626 53.5811 46.719 54.194 46.092 53.7384L42.9702 51.4703C42.6898 51.2666 42.3102 51.2666 42.0298 51.4703L38.908 53.7384C38.281 54.194 37.4374 53.5811 37.6769 52.844L38.8693 49.1741C38.9764 48.8445 38.8591 48.4834 38.5787 48.2797L35.4569 46.0116C34.8299 45.556 35.1521 44.5643 35.9271 44.5643H39.7859C40.1325 44.5643 40.4396 44.3412 40.5467 44.0116L41.7392 40.3416Z" fill="#1F50FE"/>
</svg>
