<svg width="35" height="19" viewBox="0 0 35 19" fill="none" xmlns="http://www.w3.org/2000/svg">
<g filter="url(#filter0_b_0_705)">
<path fill-rule="evenodd" clip-rule="evenodd" d="M32.9556 14.6645C32.8051 14.5206 32.6655 14.387 32.5464 14.2656C32.2809 13.9951 31.9485 13.7094 31.6024 13.4119C30.6516 12.5947 29.5976 11.6887 29.5426 10.7643C29.4707 9.54563 30.8462 8.00273 31.8171 6.91353C32.1151 6.57925 32.375 6.2877 32.5433 6.06139C33.773 4.41553 34.9464 0.704526 34.9464 0.704526L27.443 0.65759C27.443 0.65759 24.7708 7.52263 21.6418 9.16223C20.4548 8.37202 20.6819 6.55856 20.9071 4.76016C21.1046 3.18315 21.3006 1.61772 20.5404 0.763977C19.4202 -0.493884 12.4895 -0.155951 12.2329 1.46487C12.9932 1.68703 13.7286 1.91545 14.0352 2.56941C14.8049 4.18398 14.5797 9.00265 13.3374 9.16223C12.6758 9.24629 12.0635 8.36451 11.6248 7.7327C11.5573 7.63546 11.4938 7.54414 11.435 7.46318C11.3275 7.31351 11.2207 7.16724 11.1149 7.02223C10.7028 6.45785 10.3046 5.91258 9.9362 5.26036C9.39176 4.29663 7.336 0.557463 7.336 0.557463L0.927795 0.579366C0.927795 0.579366 3.17442 6.23035 4.72954 8.86185C7.9399 14.2938 11.5789 19.8916 20.6405 18.4648C20.8305 17.9564 20.9032 17.3701 20.9728 16.8089C21.1152 15.6606 21.2445 14.6175 22.3396 14.5629C23.086 14.5294 23.6694 15.237 24.1472 15.8165C24.2503 15.9415 24.3485 16.0606 24.4423 16.1649C24.6428 16.3892 24.8165 16.6052 24.983 16.8122C25.2998 17.206 25.5901 17.567 25.988 17.889C27.2772 18.9247 28.5475 18.8778 30.6909 18.7871C31.1435 18.769 31.5993 18.7827 32.0347 18.7958C33.4053 18.837 34.5729 18.8722 34.7962 17.889C35.0684 16.6853 33.8288 15.4997 32.9556 14.6645Z" fill="white" fill-opacity="1"/>
</g>
<defs>
<filter id="filter0_b_0_705" x="-7.0722" y="-8" width="50.0186" height="34.8306" filterUnits="userSpaceOnUse" color-interpolation-filters="sRGB">
<feFlood flood-opacity="0" result="BackgroundImageFix"/>
<feGaussianBlur in="BackgroundImageFix" stdDeviation="4"/>
<feComposite in2="SourceAlpha" operator="in" result="effect1_backgroundBlur_0_705"/>
<feBlend mode="normal" in="SourceGraphic" in2="effect1_backgroundBlur_0_705" result="shape"/>
</filter>
</defs>
</svg>
