<svg width="140" height="49" viewBox="0 0 140 49" fill="none" xmlns="http://www.w3.org/2000/svg">
<g clip-path="url(#clip0_0_458)">
<path d="M15.8045 -7.24792e-05C19.1545 -7.24792e-05 20.2071 2.39166 21.0903 4.77965C21.4613 5.7937 30.1666 29.5236 30.4284 30.2359C30.4981 30.4346 30.451 30.7607 30.144 30.8788C29.8352 30.995 25.3121 32.7457 25.0617 32.8394C24.8112 32.935 24.5306 32.7963 24.4403 32.547C24.3461 32.3015 22.4687 27.1281 22.2578 26.5508H9.35505C9.15168 27.1281 7.25167 32.3127 7.16693 32.547C7.08031 32.7851 6.81103 32.9463 6.54364 32.8394C6.27624 32.7344 1.73618 30.9838 1.46502 30.8788C1.20516 30.7776 1.08653 30.4833 1.17691 30.2359C1.49703 29.3474 10.0706 5.998 10.5075 4.77965C11.3586 2.42728 12.447 -7.24792e-05 15.8045 -7.24792e-05ZM0.487713 42.4607C0.216552 42.4607 0 42.6856 0 42.9593V48.5056C0 48.7793 0.216552 49.0005 0.487713 49.0005H31.1082C31.385 49.0005 31.6015 48.7793 31.6015 48.5056V42.9593C31.6015 42.6856 31.385 42.4607 31.1082 42.4607H0.487713ZM15.7744 7.7487L11.4132 20.7851H20.2071L15.8309 7.7487H15.7744ZM81.2164 29.1244C80.5743 29.3399 80.1506 29.3924 79.646 29.3924C78.6027 29.3924 78.0246 28.9819 78.0246 27.9172C78.0246 26.8076 78.759 26.4365 80.2015 26.4365C80.5536 26.4365 80.9001 26.4871 81.062 26.5433V27.338C81.062 28.1947 81.1091 28.757 81.2164 29.1244ZM84.9242 30.3952C84.154 29.2312 83.9525 28.5452 83.9525 27.0775V24.0972C83.9525 22.4927 83.7642 21.9135 83.3386 21.3287C82.7455 20.5002 81.7569 20.1404 79.9397 20.1404C78.6536 20.1404 77.4051 20.2791 76.1962 20.5865L76.6331 22.7045C77.4503 22.5902 78.3071 22.4927 78.9116 22.4927C80.8417 22.4927 81.062 22.7701 81.062 24.2115V24.7495C80.6327 24.6352 80.1506 24.5527 79.5914 24.5527C76.6858 24.5527 75.1511 25.9679 75.1511 28.3109C75.1511 30.5077 76.7913 31.7054 78.7892 31.7054C79.5349 31.7054 80.3144 31.5686 80.9321 31.3174C81.3049 31.1562 81.4669 31.0606 81.9489 30.7495C82.2389 31.1693 82.8208 31.5986 83.0581 31.6792L84.9242 30.3952ZM113.665 29.1244C113.019 29.3399 112.603 29.3924 112.095 29.3924C111.048 29.3924 110.462 28.9819 110.462 27.9172C110.462 26.8076 111.206 26.4365 112.652 26.4365C113.004 26.4365 113.353 26.4871 113.511 26.5433V27.338C113.511 28.1947 113.556 28.757 113.665 29.1244ZM117.377 30.3952C116.601 29.2312 116.403 28.5452 116.403 27.0775V24.0972C116.403 22.4927 116.211 21.9135 115.782 21.3287C115.196 20.5002 114.206 20.1404 112.383 20.1404C111.099 20.1404 109.843 20.2791 108.634 20.5865L109.065 22.7045C109.884 22.5902 110.743 22.4927 111.364 22.4927C113.283 22.4927 113.511 22.7701 113.511 24.2115V24.7495C113.082 24.6352 112.603 24.5527 112.033 24.5527C109.123 24.5527 107.583 25.9679 107.583 28.3109C107.583 30.5077 109.227 31.7054 111.234 31.7054C111.989 31.7054 112.761 31.5686 113.373 31.3174C113.752 31.1562 113.908 31.0606 114.39 30.7495C114.684 31.1693 115.266 31.5986 115.505 31.6792L117.377 30.3952ZM140 31.4561C140 31.4561 138.407 28.0766 138.017 27.3081C137.578 26.4421 137.172 25.8442 136.275 25.6286V25.5799C136.876 25.4655 137.354 25.1038 137.878 23.9979C138.373 22.9201 138.52 22.6877 138.812 22.4309C139.098 22.176 139.49 22.2678 139.49 22.2678L139.637 20.2753C139.22 20.2191 138.759 20.2172 138.283 20.2434C137.492 20.2903 137.083 20.5171 136.693 20.907C136.388 21.205 136.181 21.6511 135.925 22.1628C135.654 22.7214 135.439 23.1713 135.157 23.7392C134.876 24.3221 134.744 24.5846 133.989 24.5846H133.498V15.758H130.588V31.4561H133.498V26.9426L133.895 26.9351C134.729 26.9351 134.876 27.1431 135.317 28.0185C135.833 29.0625 136.821 31.4561 136.821 31.4561H140ZM58.0416 31.4561H61.3991L56.3205 16.0204C55.7857 15.8424 55.1247 15.7318 54.4186 15.7318C53.6484 15.7318 53.3735 15.833 52.7709 16.0204L47.3967 31.4561H50.6186C50.6186 31.4561 51.0536 30.1028 51.5658 28.4252H57.1321C57.6292 30.1009 58.0416 31.4561 58.0416 31.4561ZM52.383 25.8367C52.383 25.8367 53.3132 22.7383 53.4582 22.2566C53.8273 21.0082 54.3885 19.0251 54.3885 19.0251H54.4807C54.4807 19.0251 55.0005 21.0794 55.3394 22.2341C55.4675 22.6933 56.3563 25.8367 56.3563 25.8367H52.383ZM89.8804 24.071C88.8541 24.071 88.0199 24.9051 88.0199 25.9266C88.0199 26.9557 88.8541 27.7842 89.8804 27.7842C90.9086 27.7842 91.739 26.9557 91.739 25.9266C91.739 24.9051 90.9086 24.071 89.8804 24.071ZM65.3855 15.758H62.4687V31.4542H65.3855V15.758ZM123.337 22.6352C124.949 22.6689 125.148 23.0007 125.148 24.3465V31.4561H128.039V24.0972C128.039 22.4927 127.85 21.9135 127.421 21.3287C126.828 20.5002 125.662 20.1404 123.691 20.1404C121.74 20.1404 120.497 20.3465 118.898 20.8208V31.4561H121.819V22.7701C122.585 22.6595 122.721 22.6352 123.337 22.6352ZM72.5995 15.4787C70.7767 15.4787 69.7844 15.8386 69.2006 16.6652C68.7713 17.2519 68.5811 17.8442 68.5811 19.4524V20.8208H67.133V23.1675H68.5811V31.4561H71.4735L71.4659 23.1675H74.3489V20.8208H71.4659L71.4735 19.563C71.4735 18.1235 71.6938 17.8442 73.6258 17.8442C73.8348 17.8442 74.0702 17.8555 74.3207 17.8742L74.7764 15.6193C74.0627 15.5256 73.3321 15.4787 72.5995 15.4787ZM95.8064 15.6249C96.7988 15.5668 99.017 15.4843 100.409 15.4843C100.663 15.4843 100.926 15.4862 101.19 15.4993C103.926 15.4993 105.495 17.4825 105.495 19.8105C105.495 21.3943 104.766 22.4459 103.058 23.0719C105.067 23.5143 106.12 25.0756 106.12 26.9857C106.12 28.3877 105.723 29.5011 104.994 30.2602C104.049 31.1862 102.617 31.7054 100.712 31.7054C99.017 31.7054 96.8892 31.6529 95.8064 31.5892V15.6249ZM100.409 18.1966C99.9265 18.1966 99.3296 18.206 98.7383 18.2266V21.996H100.41C101.073 21.996 101.606 21.8123 101.97 21.4581C102.316 21.1244 102.497 20.6521 102.497 20.0916C102.497 18.8864 101.842 18.2041 100.623 18.1966H100.409ZM100.469 28.9988H100.595C102.115 28.9988 103.045 28.1947 103.056 26.5752C103.041 25.9941 102.817 25.458 102.416 25.07C101.977 24.6314 101.356 24.4027 100.627 24.4027H98.7383V28.9819C99.2712 28.9931 99.8587 28.995 100.469 28.9988Z" fill="#EE2A23"/>
</g>
<defs>
<clipPath id="clip0_0_458">
<rect width="140" height="49" fill="white"/>
</clipPath>
</defs>
</svg>
