<svg width="304" height="80" viewBox="0 0 304 80" fill="none" xmlns="http://www.w3.org/2000/svg">
<path fill-rule="evenodd" clip-rule="evenodd" d="M16.3666 43.7854C13.2862 43.7854 10.4936 43.1219 7.98897 41.7951C5.51311 40.4394 3.55545 38.579 2.116 36.2137C0.705332 33.8197 0 31.1227 0 28.1229C0 25.1231 0.705332 22.4406 2.116 20.0753C3.55545 17.6813 5.51311 15.8208 7.98897 14.494C10.4936 13.1383 13.3006 12.4604 16.4098 12.4604C19.0296 12.4604 21.3903 12.922 23.4919 13.845C25.6223 14.768 27.4072 16.0948 28.8467 17.8255L24.3556 21.9791C22.3115 19.6138 19.7781 18.4312 16.7552 18.4312C14.884 18.4312 13.2142 18.8495 11.7459 19.6859C10.2777 20.4936 9.12614 21.6329 8.29125 23.104C7.48516 24.5751 7.08211 26.248 7.08211 28.1229C7.08211 29.9978 7.48516 31.6708 8.29125 33.1418C9.12614 34.6129 10.2777 35.7666 11.7459 36.6031C13.2142 37.4108 14.884 37.8146 16.7552 37.8146C19.7781 37.8146 22.3115 36.6176 24.3556 34.2235L28.8467 38.3771C27.4072 40.1366 25.6223 41.4778 23.4919 42.4008C21.3615 43.3239 18.9864 43.7854 16.3666 43.7854ZM58.7037 37.6415V43.2662H35.2982V12.9796H58.1424V18.6043H42.2508V25.1808H56.2855V30.6324H42.2508V37.6415H58.7037ZM87.9779 43.2662H93.7213V12.9796H86.8119V31.3679L71.784 12.9796H65.9974V43.2662H72.9068V24.8779L87.9779 43.2662ZM108.862 18.6908H99.1891V12.9796H125.531V18.6908H115.858V34.2521H108.862V18.6908ZM138.018 12.9796H131.022V43.2662H138.018V12.9796ZM161.386 43.7854C158.306 43.7854 155.513 43.1219 153.008 41.7951C150.532 40.4394 148.575 38.579 147.135 36.2137C145.725 33.8197 145.019 31.1227 145.019 28.1229C145.019 25.1231 145.725 22.4406 147.135 20.0753C148.575 17.6813 150.532 15.8208 153.008 14.494C155.513 13.1383 158.32 12.4604 161.429 12.4604C164.049 12.4604 166.41 12.922 168.511 13.845C170.642 14.768 172.427 16.0948 173.866 17.8255L169.375 21.9791C167.331 19.6138 164.797 18.4312 161.775 18.4312C159.903 18.4312 158.234 18.8495 156.765 19.6859C155.297 20.4936 154.146 21.6329 153.311 23.104C152.505 24.5751 152.101 26.248 152.101 28.1229C152.101 29.9978 152.505 31.6708 153.311 33.1418C154.146 34.6129 155.297 35.7666 156.765 36.6031C158.234 37.4108 159.903 37.8146 161.775 37.8146C164.797 37.8146 167.331 36.6176 169.375 34.2235L173.866 38.3771C172.427 40.1366 170.642 41.4778 168.511 42.4008C166.381 43.3239 164.006 43.7854 161.386 43.7854ZM266.026 43.2669L260.196 34.8299H259.851H253.762V43.2669H246.766V12.9804H259.851C262.528 12.9804 264.846 13.4275 266.803 14.3216C268.79 15.2158 270.316 16.485 271.381 18.1291C272.446 19.7732 272.979 21.7202 272.979 23.9701C272.979 26.2199 272.432 28.1669 271.338 29.811C270.273 31.4263 268.747 32.6666 266.76 33.5319L273.54 43.2669H266.026ZM265.897 23.9701C265.897 22.2682 265.35 20.9703 264.256 20.0761C263.162 19.1531 261.564 18.6915 259.462 18.6915H253.762V29.2486H259.462C261.564 29.2486 263.162 28.7871 264.256 27.864C265.35 26.941 265.897 25.643 265.897 23.9701ZM303.654 37.6423V43.2669H280.249V12.9804H303.093V18.605H287.201V25.1815H301.236V30.6331H287.201V37.6423H303.654ZM116.056 36.0544H108.859V43.2655H116.056V36.0544Z" fill="white"/>
<path d="M235.463 30.7436H227.431C227.431 18.2093 217.289 8.04808 204.779 8.04808V0C221.725 0 235.463 13.7644 235.463 30.7436ZM204.779 8.04808V16.0962C196.35 16.0962 189.517 22.9423 189.517 31.3875H181.484C181.484 18.4975 191.913 8.04808 204.779 8.04808ZM204.136 54.0831V46.035C212.565 46.035 219.398 39.1889 219.398 30.7436H227.431C227.431 43.6337 217.001 54.0831 204.136 54.0831ZM189.517 31.3875H197.549C197.549 35.3873 200.143 37.9853 204.136 37.9853V46.0334C195.707 46.0334 189.517 39.8325 189.517 31.3875Z" fill="#1F50FE"/>
<path d="M75.4434 80.0004C74.396 80.0004 73.4306 79.8363 72.5473 79.5082C71.6765 79.1675 70.9131 78.688 70.2568 78.0696C69.6133 77.4513 69.1085 76.7256 68.7425 75.8928C68.3892 75.0599 68.2125 74.145 68.2125 73.148C68.2125 72.1511 68.3892 71.2362 68.7425 70.4033C69.1085 69.5704 69.6196 68.8448 70.2758 68.2264C70.932 67.6081 71.7018 67.1348 72.5851 66.8067C73.4685 66.466 74.4402 66.2957 75.5002 66.2957C76.6738 66.2957 77.7276 66.4913 78.6614 66.8825C79.6079 67.2737 80.4029 67.8415 81.0465 68.5861L79.0778 70.4033C78.5983 69.8985 78.0746 69.5262 77.5067 69.2865C76.9388 69.0341 76.3205 68.9079 75.6517 68.9079C75.0081 68.9079 74.4213 69.0088 73.8912 69.2107C73.3612 69.4127 72.9006 69.7029 72.5094 70.0815C72.1308 70.4601 71.8343 70.9081 71.6197 71.4255C71.4178 71.9429 71.3169 72.517 71.3169 73.148C71.3169 73.7664 71.4178 74.3342 71.6197 74.8516C71.8343 75.369 72.1308 75.8233 72.5094 76.2145C72.9006 76.5931 73.3549 76.8834 73.8723 77.0853C74.4023 77.2872 74.9828 77.3882 75.6138 77.3882C76.2195 77.3882 76.8063 77.2935 77.3742 77.1042C77.9547 76.9023 78.5163 76.5679 79.0589 76.101L80.8004 78.3157C80.0811 78.8583 79.2419 79.2748 78.2828 79.565C77.3364 79.8553 76.3899 80.0004 75.4434 80.0004ZM77.9989 77.9182V72.9398H80.8004V78.3157L77.9989 77.9182Z" fill="#1F50FE"/>
<path d="M95.0065 79.7732V66.5228H100.742C101.928 66.5228 102.95 66.7184 103.809 67.1096C104.667 67.4882 105.329 68.0371 105.796 68.7564C106.263 69.4758 106.496 70.3339 106.496 71.3308C106.496 72.3151 106.263 73.1669 105.796 73.8863C105.329 74.5929 104.667 75.1356 103.809 75.5142C102.95 75.8928 101.928 76.082 100.742 76.082H96.7101L98.073 74.7381V79.7732H95.0065ZM103.43 79.7732L100.117 74.9652H103.392L106.743 79.7732H103.43ZM98.073 75.0788L96.7101 73.6402H100.572C101.518 73.6402 102.225 73.4383 102.692 73.0344C103.159 72.618 103.392 72.0501 103.392 71.3308C103.392 70.5989 103.159 70.031 102.692 69.6272C102.225 69.2234 101.518 69.0215 100.572 69.0215H96.7101L98.073 67.5639V75.0788Z" fill="#1F50FE"/>
<path d="M126.72 80.0004C125.672 80.0004 124.7 79.83 123.804 79.4893C122.921 79.1486 122.151 78.669 121.495 78.0507C120.851 77.4323 120.347 76.7067 119.981 75.8738C119.627 75.0409 119.451 74.1323 119.451 73.148C119.451 72.1637 119.627 71.2551 119.981 70.4222C120.347 69.5893 120.858 68.8637 121.514 68.2454C122.17 67.627 122.94 67.1475 123.823 66.8067C124.707 66.466 125.666 66.2957 126.701 66.2957C127.748 66.2957 128.707 66.466 129.578 66.8067C130.461 67.1475 131.225 67.627 131.868 68.2454C132.524 68.8637 133.036 69.5893 133.402 70.4222C133.767 71.2425 133.95 72.1511 133.95 73.148C133.95 74.1323 133.767 75.0472 133.402 75.8928C133.036 76.7256 132.524 77.4513 131.868 78.0696C131.225 78.6753 130.461 79.1486 129.578 79.4893C128.707 79.83 127.754 80.0004 126.72 80.0004ZM126.701 77.3882C127.294 77.3882 127.836 77.2872 128.328 77.0853C128.833 76.8834 129.275 76.5931 129.654 76.2145C130.032 75.836 130.322 75.388 130.524 74.8706C130.739 74.3532 130.846 73.779 130.846 73.148C130.846 72.517 130.739 71.9429 130.524 71.4255C130.322 70.9081 130.032 70.4601 129.654 70.0815C129.288 69.7029 128.852 69.4127 128.347 69.2107C127.843 69.0088 127.294 68.9079 126.701 68.9079C126.107 68.9079 125.559 69.0088 125.054 69.2107C124.562 69.4127 124.126 69.7029 123.748 70.0815C123.369 70.4601 123.072 70.9081 122.858 71.4255C122.656 71.9429 122.555 72.517 122.555 73.148C122.555 73.7664 122.656 74.3406 122.858 74.8706C123.072 75.388 123.363 75.836 123.729 76.2145C124.107 76.5931 124.549 76.8834 125.054 77.0853C125.559 77.2872 126.107 77.3882 126.701 77.3882Z" fill="#1F50FE"/>
<path d="M153.5 80.0004C151.619 80.0004 150.149 79.4767 149.089 78.4293C148.029 77.3818 147.499 75.8864 147.499 73.943V66.5228H150.566V73.8295C150.566 75.0914 150.824 76 151.342 76.5553C151.859 77.1105 152.585 77.3882 153.518 77.3882C154.452 77.3882 155.178 77.1105 155.695 76.5553C156.213 76 156.471 75.0914 156.471 73.8295V66.5228H159.5V73.943C159.5 75.8864 158.97 77.3818 157.91 78.4293C156.85 79.4767 155.38 80.0004 153.5 80.0004Z" fill="#1F50FE"/>
<path d="M173.888 79.7732V66.5228H179.623C180.81 66.5228 181.832 66.7184 182.69 67.1096C183.548 67.4882 184.211 68.0371 184.678 68.7564C185.144 69.4758 185.378 70.3339 185.378 71.3308C185.378 72.3151 185.144 73.1669 184.678 73.8863C184.211 74.6056 183.548 75.1608 182.69 75.552C181.832 75.9306 180.81 76.1199 179.623 76.1199H175.592L176.954 74.7381V79.7732H173.888ZM176.954 75.0788L175.592 73.6212H179.453C180.4 73.6212 181.106 73.4193 181.573 73.0155C182.04 72.6117 182.274 72.0501 182.274 71.3308C182.274 70.5989 182.04 70.031 181.573 69.6272C181.106 69.2234 180.4 69.0215 179.453 69.0215H175.592L176.954 67.5639V75.0788Z" fill="#1F50FE"/>
</svg>
