<svg width="60" height="60" viewBox="0 0 60 60" fill="none" xmlns="http://www.w3.org/2000/svg">
<g clip-path="url(#clip0_0_374)">
<path d="M52.5 2.5H7.5C3.365 2.5 0 5.865 0 10V50C0 54.135 3.365 57.5 7.5 57.5H52.5C56.635 57.5 60 54.135 60 50V10C60 5.865 56.635 2.5 52.5 2.5ZM52.5 52.5H7.5C6.1225 52.5 5 51.38 5 50V15H55V50C55 51.38 53.8775 52.5 52.5 52.5Z" fill="#1A233B"/>
<path d="M42.5 34.925C42.5 41.825 36.9 47.425 30 47.425C27.225 47.425 24.65 46.525 22.6 44.975L31.325 36.25C31.675 35.9 31.875 35.425 31.875 34.925V22.575C37.9 23.475 42.5 28.675 42.5 34.925Z" fill="#1A233B"/>
<path d="M28.125 22.575V34.15L19.95 42.325C18.4 40.275 17.5 37.7 17.5 34.925C17.5 28.675 22.1 23.475 28.125 22.575Z" fill="#1A233B"/>
</g>
<defs>
<clipPath id="clip0_0_374">
<rect width="60" height="60" fill="white"/>
</clipPath>
</defs>
</svg>
