<svg width="60" height="60" viewBox="0 0 60 60" fill="none" xmlns="http://www.w3.org/2000/svg">
<g clip-path="url(#clip0_0_351)">
<path d="M52.5 2.5H7.5C3.375 2.5 0 5.875 0 10V50C0 54.125 3.375 57.5 7.5 57.5H52.5C56.625 57.5 60 54.125 60 50V10C60 5.875 56.625 2.5 52.5 2.5ZM55 50C55 51.375 53.875 52.5 52.5 52.5H7.5C6.125 52.5 5 51.375 5 50V15H55V50Z" fill="#1A233B"/>
<path d="M40.4445 41.1241C39.8822 41.1241 39.3198 40.9323 38.8582 40.5357C37.8376 39.6581 37.7173 38.1206 38.5949 37.0967L42.1088 32.9978L38.5917 28.8956C37.7141 27.8749 37.8343 26.3342 38.855 25.4566C39.8789 24.5789 41.4164 24.6992 42.294 25.7198L47.1698 31.4083C47.9532 32.3217 47.9532 33.6674 47.1698 34.584L42.294 40.2724C41.813 40.8348 41.1304 41.1241 40.4445 41.1241Z" fill="#1A233B"/>
<path d="M19.3161 41.1246C18.6303 41.1246 17.9476 40.8353 17.4633 40.273L12.5875 34.5846C11.8042 33.6712 11.8042 32.3254 12.5875 31.4088L17.4633 25.7204C18.3377 24.6965 19.8785 24.5795 20.9024 25.4603C21.923 26.338 22.0433 27.8755 21.1657 28.8994L17.6518 32.9983L21.1689 37.1005C22.0465 38.1211 21.9263 39.6619 20.9056 40.5395C20.444 40.9296 19.8785 41.1246 19.3161 41.1246Z" fill="#1A233B"/>
<path d="M26.8963 45.9384C25.5831 45.6361 24.7672 44.3261 25.0663 43.0162L29.9421 21.8878C30.2444 20.5746 31.5511 19.7717 32.8643 20.0577C34.1775 20.36 34.9934 21.67 34.6943 22.98L29.8185 44.1083C29.5227 45.3988 28.2388 46.2407 26.8963 45.9384Z" fill="#1A233B"/>
</g>
<defs>
<clipPath id="clip0_0_351">
<rect width="60" height="60" fill="white"/>
</clipPath>
</defs>
</svg>
