<svg width="131" height="35" viewBox="0 0 131 35" fill="none" xmlns="http://www.w3.org/2000/svg">
<path d="M34.5744 0.383789H0V34.9393H34.5744V0.383789Z" fill="#ED1A3A"/>
<path d="M28.9904 3.82592C28.1958 3.82592 27.5941 4.35277 27.2943 4.98589L22.941 12.149C22.6391 12.8115 22.4188 13.5558 22.4188 14.0484C22.4188 14.4887 22.4792 14.8776 22.6406 15.2361L27.3498 26.48H9.06295C8.40467 26.48 7.86139 25.8191 7.86139 25.2091V5.84085C7.72303 3.19305 3.9154 3.19448 3.83154 5.92403L3.91473 26.48C3.91473 28.7148 5.64336 30.5052 7.86139 30.5052H32.7938L26.7166 14.9635C26.5489 14.3848 26.4742 13.8601 26.883 13.1704L30.9036 6.63573C30.9602 6.49946 31.0423 5.92328 31.0423 5.75766C30.9626 4.57108 30.0323 3.77351 28.9904 3.82592ZM19.1191 3.83517C18.1411 3.84172 17.1642 4.51695 17.1642 5.84085V19.7004C17.1642 21.713 14.4561 21.5473 14.4561 19.7004V5.84085C14.4561 3.19305 10.5372 3.19305 10.5372 5.84085V19.8113C10.5372 23.0063 12.9241 25.1305 15.7732 25.1305C18.6998 25.1305 21.0786 23.0063 21.0786 19.8113V5.84085C21.0786 4.49074 20.0971 3.82862 19.1191 3.83517Z" fill="white"/>
<path d="M41.3484 4.44385V13.5864C41.3484 15.8715 41.1157 17.142 39.254 17.142C38.906 17.142 38.6733 17.142 38.3253 17.0162V20.9512C39.0213 21.2069 39.4867 21.2069 40.0696 21.2069C45.3023 21.2069 45.535 17.2698 45.535 14.9826V8.38095H48.558V20.9512H52.7425V4.44385H41.3484Z" fill="black"/>
<path d="M54.1387 4.44385L59.8368 16.3809L57.7445 20.9512H62.2791L69.0234 4.44385H64.4888L62.0464 11.4271L59.1387 4.44385H54.1387Z" fill="black"/>
<path d="M70.3018 20.9512H74.4883V13.8401L78.7902 20.9512H84.1382L78.2095 12.4438L84.0229 4.44385H79.0229L74.4883 11.4271V4.44385H70.3018V20.9512Z" fill="black"/>
<path d="M91.0002 21.4618C96.5809 21.4618 99.1386 17.1431 99.1386 12.6987C99.1386 8.38213 96.5809 4.06348 91.0002 4.06348C85.5348 4.06348 82.9772 8.38213 82.9772 12.6987C82.9772 17.1431 85.5348 21.4618 91.0002 21.4618ZM91.0002 17.5247C89.1386 17.5247 87.2791 15.8727 87.2791 12.6987C87.2791 9.52469 89.1386 8.00058 91.0002 8.00058C92.9772 8.00058 94.8367 9.52469 94.8367 12.6987C94.8367 15.8727 92.9772 17.5247 91.0002 17.5247Z" fill="black"/>
<path d="M101.233 4.44444V20.9518H105.302L111.115 11.0482V20.9518H115.187V4.44444H111.115L105.302 14.3501V4.44444H101.233ZM108.325 3.55555C110.069 3.55555 111.813 2.92033 112.629 1.01467L110.187 0C109.836 1.27044 108.79 1.39623 108.325 1.39623C107.977 1.39623 106.813 1.27044 106.581 0L104.14 1.01467C104.836 2.92033 106.698 3.55555 108.325 3.55555Z" fill="black"/>
<path d="M119.605 4.44385V13.5864C119.605 15.8715 119.371 17.142 117.511 17.142C117.163 17.142 116.93 17.142 116.58 17.0162V20.9512C117.278 21.2069 117.744 21.2069 118.325 21.2069C123.557 21.2069 123.79 17.2698 123.79 14.9826V8.38095H126.813V20.9512H131V4.44385H119.605Z" fill="black"/>
<path d="M38.3585 30.2166H38.9476V27.1537H42.3879V30.2166H42.977V24.2124H42.3879V26.6715H38.9476V24.2124H38.3585V30.2166Z" fill="black"/>
<path d="M44.476 30.2166H47.7024V29.7344H45.0651V27.095H47.5975V26.6128H45.0651V24.6967H47.7024V24.2124H44.476V30.2166Z" fill="black"/>
<path d="M51.5847 30.2159H52.1675V29.3899H52.4128C54.3541 29.3899 55.1571 28.2411 55.1571 27.0377C55.1571 25.6289 54.1151 24.696 52.4128 24.696H52.1675V23.9749H51.5847V24.696H51.3478C49.635 24.696 48.5952 25.6289 48.5952 27.0377C48.5952 28.2411 49.3981 29.3899 51.3478 29.3899H51.5847V30.2159ZM52.1675 25.1782C54.1151 25.2034 54.5428 26.1132 54.5428 27.0377C54.5428 28.4801 53.5847 28.8554 52.1675 28.9057V25.1782ZM51.5847 28.9057C50.1675 28.8554 49.2095 28.4801 49.2095 27.0377C49.2095 26.1132 49.635 25.2034 51.5847 25.1782V28.9057Z" fill="black"/>
<path d="M57.2852 30.2166H57.8512V24.6967H59.4487V24.2124H55.6898V24.6967H57.2852V30.2166Z" fill="black"/>
<path d="M60.1451 30.2166H60.8076L62.4051 27.5793H62.9124V30.2166H63.5036V24.2124H62.1179C60.3003 24.2124 60.0382 25.4179 60.0382 25.9503C60.0382 26.965 60.8328 27.5793 61.7678 27.5457L60.1451 30.2166ZM62.9124 27.095H62.0613C61.5791 27.095 60.621 27.0384 60.621 25.8916C60.621 24.7784 61.6357 24.6967 62.1179 24.6967H62.9124V27.095Z" fill="black"/>
<path d="M65.0106 30.2166H65.5997V27.1537H69.04V30.2166H69.6291V24.2124H69.04V26.6715H65.5997V24.2124H65.0106V30.2166Z" fill="black"/>
<path d="M70.4884 30.2157H71.0796L71.9056 28.266H74.436L75.2641 30.2157H75.8532L73.1593 24.0564L70.4884 30.2157ZM72.1194 27.7922L73.1593 25.3352L74.2243 27.7922H72.1194Z" fill="black"/>
<path d="M76.5344 30.2166H77.1969L78.7944 27.5793H79.3017V30.2166H79.8908V24.2124H78.5072C76.6895 24.2124 76.4275 25.4179 76.4275 25.9503C76.4275 26.965 77.222 27.5793 78.155 27.5457L76.5344 30.2166ZM79.3017 27.095H78.4506C77.9663 27.095 77.0082 27.0384 77.0082 25.8916C77.0082 24.7784 78.025 24.6967 78.5072 24.6967H79.3017V27.095Z" fill="black"/>
<path d="M83.3898 30.2166H83.9789V27.3088L86.6728 30.2166H87.4422L84.5344 27.1202L87.394 24.2124H86.6728L83.9789 27.0132V24.2124H83.3898V30.2166Z" fill="black"/>
<path d="M91.2431 30.4044C93.0293 30.4044 94.4947 29.1193 94.4947 27.2262C94.4947 25.3352 93.0293 24.0564 91.2431 24.0564C89.4821 24.0564 88.0167 25.3352 88.0167 27.2262C88.0167 29.1193 89.4821 30.4044 91.2431 30.4044ZM91.2431 29.8971C89.7777 29.8971 88.631 28.7985 88.631 27.2262C88.631 25.6539 89.7777 24.5323 91.2431 24.5323C92.7106 24.5323 93.8805 25.6539 93.8805 27.2262C93.8805 28.7985 92.7106 29.8971 91.2431 29.8971Z" fill="black"/>
<path d="M95.3064 30.2159H95.8724L96.428 25.7841L98.6397 30.4864L100.826 25.7841L101.418 30.2159H101.948L101.122 23.9749L98.6397 29.3396L96.1324 23.9749L95.3064 30.2159Z" fill="black"/>
<path d="M103.054 24.2124V30.2166H103.644V24.6967H107.084V30.2166H107.673V24.2124H103.054Z" fill="black"/>
<path d="M108.534 30.2157H109.123L109.949 28.266H112.482L113.308 30.2157H113.897L111.203 24.0564L108.534 30.2157ZM110.163 27.7922L111.203 25.3352L112.268 27.7922H110.163Z" fill="black"/>
<path d="M114.734 30.2166H115.323V27.1537H118.763V30.2166H119.354V24.2124H118.763V26.6715H115.323V24.2124H114.734V30.2166Z" fill="black"/>
<path d="M120.851 24.2117V30.4864L124.964 25.4654V30.2159H125.545V23.9749L121.442 28.9623V24.2117H120.851Z" fill="black"/>
<path d="M126.872 30.2166H127.534L129.132 27.5793H129.639V30.2166H130.23V24.2124H128.846C127.027 24.2124 126.765 25.4179 126.765 25.9503C126.765 26.965 127.559 27.5793 128.494 27.5457L126.872 30.2166ZM129.639 27.095H128.788C128.306 27.095 127.347 27.0384 127.347 25.8916C127.347 24.7784 128.362 24.6967 128.846 24.6967H129.639V27.095Z" fill="black"/>
</svg>
