<svg width="153" height="23" viewBox="0 0 153 23" fill="none" xmlns="http://www.w3.org/2000/svg">
<path fill-rule="evenodd" clip-rule="evenodd" d="M6.85499 0.513672H0.00256348L7.87623 11.5599L0.00256348 22.644H6.85499L14.7314 11.5599L6.85499 0.513672Z" fill="#F78F1E"/>
<path d="M15.5619 5.46436H18.8515L21.381 9.58505L23.9984 5.46436H27.1034L22.9717 11.6209L27.4645 18.3645H24.0869L21.2722 13.9009L18.3992 18.3645H15.2184L19.72 11.6039L15.5619 5.46436Z" fill="black"/>
<path d="M31.1537 7.59526L30.6486 10.471L30.6865 10.5062C31.0388 10.1572 31.4115 9.90432 31.8078 9.75482C32.2041 9.60146 32.6559 9.52891 33.1605 9.52891C33.7887 9.52891 34.3427 9.64324 34.8242 9.87189C35.3052 10.1011 35.7136 10.4061 36.045 10.7903C36.3764 11.1745 36.6293 11.6264 36.8046 12.1524C36.981 12.6751 37.069 13.2291 37.069 13.8189C37.069 14.4735 36.9398 15.0748 36.6875 15.63C36.4358 16.1906 36.0917 16.677 35.6663 17.0854C35.2348 17.496 34.739 17.8071 34.1756 18.0297C33.6068 18.2534 33.0076 18.359 32.3679 18.3469C31.7517 18.3469 31.1647 18.265 30.6046 18.1012C30.0467 17.9396 29.5509 17.6895 29.1167 17.3553C28.6819 17.0151 28.3362 16.599 28.0779 16.0994C27.8195 15.6008 27.6843 15.0193 27.6728 14.3564H30.238C30.2968 14.9347 30.5134 15.3953 30.8893 15.735C31.2592 16.079 31.7347 16.2522 32.3129 16.2522C32.6504 16.2522 32.9554 16.184 33.2226 16.0466C33.4952 15.9081 33.7244 15.7295 33.9118 15.5063C34.0965 15.2837 34.2405 15.0254 34.3433 14.7319C34.4488 14.4356 34.4988 14.1327 34.4988 13.8222C34.4988 13.4995 34.4488 13.1917 34.3515 12.9043C34.2581 12.619 34.1113 12.3673 33.9206 12.1502C33.7266 11.9325 33.5007 11.7627 33.2308 11.6456C32.967 11.5247 32.6619 11.4692 32.3123 11.4692C31.8545 11.4692 31.4818 11.5456 31.1944 11.7099C30.9009 11.8742 30.631 12.1271 30.3787 12.4789H28.0691L29.3162 5.48242H36.383V7.59581H31.1537" fill="black"/>
<path d="M45.3187 5.46436C45.8463 5.46436 46.3487 5.52647 46.8269 5.66168C47.299 5.79304 47.7157 5.99256 48.0713 6.26849C48.4264 6.53891 48.7083 6.88739 48.9194 7.31336C49.1277 7.74154 49.2365 8.24666 49.2365 8.82764C49.2365 9.64606 49.0255 10.3595 48.6028 10.9575C48.1796 11.5599 47.5574 11.9436 46.7247 12.114V12.1524C47.1473 12.2135 47.4964 12.3228 47.775 12.4844C48.0509 12.6482 48.2796 12.8538 48.456 13.1066C48.6292 13.365 48.755 13.6524 48.8342 13.9872C48.9133 14.3158 48.9634 14.6737 48.9897 15.0579C49.0013 15.275 49.0134 15.5394 49.0249 15.8532C49.0365 16.1676 49.0595 16.4814 49.098 16.8019C49.1299 17.1212 49.1915 17.4235 49.2712 17.7022C49.3476 17.9897 49.4531 18.2068 49.585 18.3656H48.223C48.1499 18.2425 48.0938 18.0958 48.0498 17.9226C48.0086 17.7495 47.9795 17.567 47.9619 17.3801C47.9443 17.1949 47.9267 17.0102 47.9152 16.8283C47.9031 16.6458 47.8916 16.4935 47.8767 16.3583C47.8531 15.9038 47.8179 15.4487 47.7624 14.9969C47.7063 14.5478 47.592 14.146 47.4161 13.7904C47.243 13.4326 46.9907 13.1511 46.6592 12.9335C46.33 12.7131 45.8755 12.6191 45.2978 12.6427H40.6489V18.3651H39.4105V5.46491H45.3187M45.2247 11.5863C45.5973 11.5863 45.9551 11.5302 46.2899 11.4159C46.6274 11.3016 46.9236 11.1339 47.1759 10.9196C47.4282 10.7052 47.6283 10.4381 47.7805 10.1358C47.9273 9.83129 48.0009 9.47897 48.0009 9.07992C48.0009 8.28514 47.7745 7.65964 47.3172 7.20178C46.8621 6.74393 46.1668 6.51748 45.2247 6.51748H40.6494V11.5858H45.2247V11.5863Z" fill="black"/>
<path d="M60.0002 5.46436V6.51803H52.3266V11.1631H59.5132V12.22H52.3266V17.3081H60.0909V18.3645H51.0932V5.46436H60.0002Z" fill="black"/>
<path d="M70.9871 5.46436V6.51803H66.4888V18.3645H65.2587V6.51803H60.778V5.46436H70.9871Z" fill="black"/>
<path d="M75.5354 5.46436L80.5888 18.3645H79.274L77.701 14.3499H71.8313L70.2791 18.3645H68.9792L74.1618 5.46436H75.5354ZM77.2876 13.2946L74.7939 6.68292L72.2138 13.2946H77.2876Z" fill="black"/>
<path d="M83.0831 5.45874H81.8502V18.3644H83.0831V5.45874Z" fill="black"/>
<path d="M87.0043 5.46436V17.3081H94.2288V18.3645H85.7709V5.46436H87.0043Z" fill="black"/>
<path d="M101.512 18.8531C100.501 18.8531 99.5977 18.6734 98.8057 18.2991C98.0252 17.9313 97.3645 17.4356 96.8396 16.8002C96.3164 16.1736 95.9228 15.4327 95.6579 14.5939C95.3913 13.7557 95.2605 12.8598 95.2605 11.9166C95.2605 10.9536 95.4045 10.056 95.687 9.20902C95.9756 8.36202 96.3878 7.6211 96.9226 6.9967C97.4596 6.36296 98.1181 5.86443 98.8893 5.50441C99.6643 5.1433 100.545 4.96191 101.523 4.96191C102.265 4.96191 102.953 5.06855 103.587 5.27906C104.218 5.49177 104.775 5.79738 105.259 6.18927C105.739 6.58667 106.136 7.05991 106.441 7.60901C106.752 8.1614 106.96 8.7847 107.075 9.46186L107.116 9.70371H106.87H106.332L106.301 9.53167C106.2 8.95619 106.012 8.44007 105.743 7.96902C105.471 7.50128 105.135 7.10553 104.725 6.77574C104.317 6.44321 103.845 6.18817 103.306 6.00734C102.773 5.82706 102.176 5.73911 101.522 5.73911C100.644 5.73911 99.8726 5.90071 99.2004 6.2228C98.5199 6.54819 97.9494 6.98846 97.4827 7.54195C97.0128 8.09929 96.6533 8.75007 96.4082 9.50253C96.1625 10.2544 96.0404 11.0619 96.0404 11.9171C96.0404 12.7779 96.1597 13.5875 96.3955 14.3433C96.6258 15.093 96.9732 15.7493 97.4371 16.3016C97.8944 16.8513 98.4732 17.291 99.1608 17.6191C99.8451 17.9385 100.645 18.1045 101.57 18.1045C102.26 18.1045 102.898 17.9858 103.494 17.7483C104.098 17.5103 104.624 17.1794 105.063 16.7612C105.506 16.344 105.851 15.8438 106.108 15.2601C106.359 14.6763 106.486 14.0476 106.486 13.3643V12.9026H101.486V12.696V12.3371V12.1298H107.269V18.5662H107.062H106.485L106.491 16.1049C106.113 16.8315 105.58 17.4306 104.9 17.8956C103.956 18.5365 102.825 18.8531 101.52 18.8531C101.519 18.8531 101.516 18.8531 101.512 18.8531Z" fill="black"/>
<path d="M108.526 18.5711H108.32V5.26196H113.817C115.196 5.26361 116.236 5.52689 116.924 6.11556C117.61 6.69929 117.948 7.6018 117.977 8.7709C117.98 8.81212 117.98 8.8528 117.98 8.89402C117.98 9.74707 117.731 10.4792 117.235 11.0646C116.86 11.5098 116.366 11.8484 115.766 12.0809C116.005 12.1507 116.22 12.2364 116.411 12.3397C116.776 12.5409 117.066 12.8102 117.264 13.1477C117.458 13.4742 117.59 13.8573 117.655 14.2926C117.712 14.7153 117.742 15.1814 117.742 15.7124C117.742 15.8795 117.753 16.1081 117.762 16.378C117.774 16.6462 117.794 16.9111 117.815 17.1711C117.842 17.4322 117.87 17.6664 117.904 17.8807C117.935 18.0835 117.985 18.2127 118.012 18.244L118.252 18.5727H117.844H117.317L117.261 18.4562C117.182 18.2946 117.131 18.1022 117.089 17.8615C117.054 17.6361 117.024 17.3888 117.008 17.1305C116.992 16.8754 116.975 16.6204 116.97 16.3577C116.964 16.0944 116.959 15.8641 116.959 15.6541C116.959 15.1347 116.923 14.673 116.845 14.2712C116.772 13.887 116.629 13.5748 116.417 13.3209C116.204 13.073 115.891 12.8718 115.48 12.7311C115.063 12.592 114.488 12.5156 113.757 12.5156H109.104V18.5722H108.896H108.526V18.5711ZM113.724 11.7478C114.189 11.7478 114.628 11.6884 115.055 11.5691C115.468 11.4592 115.834 11.2806 116.146 11.031C116.461 10.7859 116.71 10.4819 116.905 10.0983C117.091 9.73058 117.188 9.28207 117.188 8.74122C117.174 7.86453 116.918 7.22255 116.423 6.74875C115.941 6.29255 115.109 6.04081 113.908 6.04191L109.104 6.04081V11.7483H113.724V11.7478Z" fill="black"/>
<path d="M122.102 18.2986C121.337 17.9293 120.69 17.4275 120.173 16.7899C119.658 16.1523 119.265 15.4136 118.997 14.5693C118.734 13.7327 118.596 12.8445 118.596 11.9096C118.596 10.973 118.734 10.0825 118.997 9.24708C119.264 8.40173 119.658 7.6641 120.173 7.02761C120.689 6.38838 121.337 5.88215 122.101 5.51279C122.875 5.13354 123.76 4.94556 124.746 4.94556C125.737 4.94556 126.621 5.13354 127.391 5.51279C128.157 5.88215 128.806 6.38893 129.324 7.02761C129.839 7.6641 130.233 8.40173 130.5 9.24543C130.764 10.0825 130.897 10.973 130.897 11.9096C130.897 12.8434 130.765 13.7305 130.5 14.5693C130.233 15.4136 129.839 16.1523 129.324 16.7899C128.806 17.4275 128.157 17.9293 127.391 18.2986C126.62 18.6724 125.737 18.8543 124.746 18.8543C123.761 18.8543 122.877 18.6724 122.102 18.2986ZM120.84 16.376C121.296 16.9185 121.852 17.3439 122.511 17.6528C123.164 17.9562 123.906 18.109 124.746 18.109C125.589 18.109 126.332 17.9568 126.987 17.6545C127.646 17.3439 128.2 16.9185 128.656 16.3776C129.107 15.8351 129.465 15.1844 129.716 14.4269C129.967 13.6596 130.1 12.8313 130.111 11.9255C130.1 11.0202 129.967 10.1881 129.716 9.42572C129.465 8.66776 129.108 8.01368 128.656 7.46953C128.2 6.93033 127.646 6.50765 126.987 6.1971C126.332 5.89095 125.589 5.73815 124.746 5.73815C123.906 5.73815 123.164 5.89095 122.512 6.1971C121.85 6.50765 121.296 6.92758 120.84 7.46953C120.385 8.01368 120.031 8.66776 119.777 9.42572C119.528 10.1864 119.397 11.0202 119.386 11.9206C119.397 12.8308 119.528 13.6591 119.777 14.4258V14.4253C120.031 15.1844 120.385 15.8351 120.84 16.376Z" fill="black"/>
<path d="M141.681 5.2561H141.889V13.553C141.889 15.3152 141.477 16.6568 140.618 17.5401C139.765 18.4229 138.527 18.8543 136.953 18.8543C136.95 18.8543 136.947 18.8543 136.945 18.8543C135.365 18.856 134.128 18.4245 133.273 17.5401C132.412 16.6568 132.003 15.3152 132.003 13.553V5.2561H132.211H132.786V13.553C132.788 15.0777 133.134 16.199 133.798 16.9542C134.457 17.7001 135.487 18.0903 136.945 18.0925C138.402 18.0903 139.43 17.7001 140.09 16.9542C140.752 16.1979 141.104 15.0772 141.104 13.553V5.2561H141.311H141.681Z" fill="black"/>
<path d="M143.258 18.5712H143.049V5.26758H148.489C149.76 5.26758 150.777 5.57263 151.515 6.20582C152.251 6.84286 152.621 7.78935 152.619 8.99802C152.619 9.58999 152.509 10.1226 152.293 10.5931C152.075 11.0592 151.773 11.4533 151.384 11.7704C151.001 12.0826 150.543 12.3184 150.022 12.474C149.501 12.6339 148.925 12.7087 148.307 12.7087H143.834V18.5717H143.627H143.258V18.5712ZM148.484 11.9238C148.97 11.9238 149.418 11.86 149.829 11.7276C150.241 11.5973 150.589 11.4077 150.889 11.1543C151.183 10.9053 151.412 10.5986 151.583 10.2408C151.749 9.8857 151.834 9.47182 151.834 8.99143C151.832 8.00701 151.558 7.28972 151.021 6.79559C150.493 6.30531 149.658 6.04203 148.485 6.04203L143.833 6.04093V11.9243H148.484V11.9238Z" fill="black"/>
</svg>
