<svg width="60" height="60" viewBox="0 0 60 60" fill="none" xmlns="http://www.w3.org/2000/svg">
<g clip-path="url(#clip0_0_364)">
<path d="M52.5 2.5H7.5C3.365 2.5 0 5.865 0 10V50C0 54.135 3.365 57.5 7.5 57.5H52.5C56.635 57.5 60 54.135 60 50V10C60 5.865 56.635 2.5 52.5 2.5ZM52.5 52.5H7.5C6.1225 52.5 5 51.38 5 50V15H55V50C55 51.38 53.8775 52.5 52.5 52.5Z" fill="#1A233B"/>
<path d="M48.125 37.5H44.375C41.9625 37.5 40 39.4625 40 41.875H31.875V28.125H40.32C41.1225 30.6525 43.4625 32.5 46.25 32.5C49.695 32.5 52.5 29.695 52.5 26.25C52.5 22.805 49.695 20 46.25 20C43.4625 20 41.1225 21.8475 40.32 24.375H19.68C18.8775 21.8475 16.5375 20 13.75 20C10.305 20 7.5 22.805 7.5 26.25C7.5 29.695 10.305 32.5 13.75 32.5C16.5375 32.5 18.8775 30.6525 19.68 28.125H28.125V41.875H20C20 39.4625 18.0375 37.5 15.625 37.5H11.875C9.4625 37.5 7.5 39.4625 7.5 41.875V45.625C7.5 48.0375 9.4625 50 11.875 50H15.625C18.0375 50 20 48.0375 20 45.625H40C40 48.0375 41.9625 50 44.375 50H48.125C50.5375 50 52.5 48.0375 52.5 45.625V41.875C52.5 39.4625 50.5375 37.5 48.125 37.5Z" fill="#1A233B"/>
</g>
<defs>
<clipPath id="clip0_0_364">
<rect width="60" height="60" fill="white"/>
</clipPath>
</defs>
</svg>
